<?xml version="1.0" encoding="utf-8"?>
<!-- Generator: Adobe Illustrator 15.0.0, SVG Export Plug-In . SVG Version: 6.00 Build 0)  -->
<!DOCTYPE svg PUBLIC "-//W3C//DTD SVG 1.1//EN" "http://www.w3.org/Graphics/SVG/1.1/DTD/svg11.dtd">
<svg version="1.1"  xmlns="http://www.w3.org/2000/svg" xmlns:xlink="http://www.w3.org/1999/xlink" x="0px" y="0px"
	 width="48px" height="48px" viewBox="0 0 48 48" enable-background="new 0 0 48 48" xml:space="preserve">
<path fill="#3F51B5" d="M24.501,45C33.084,45,39,40.743,39,24.5C39,8.249,33.084,4,24.501,4C15.918,4,10,8.249,10,24.5
	C10,40.743,15.918,45,24.501,45L24.501,45z"/>
<path fill="#FFFFFF" d="M33.279,17.616L23,7.267V21l-5.651-5.781l-2.055,2.072l7.094,7.166l-7.094,7.168l2.054,2.072L23,28v13.647
	l10.277-10.35l-6.785-6.841L33.279,17.616z M26,13.969l3.172,3.295L26,20.581V13.969z M29.172,31.264L26,34.581v-6.612
	L29.172,31.264z"/>
</svg>
